<svg width="25" height="25" viewBox="0 0 25 25" fill="none" xmlns="http://www.w3.org/2000/svg">
<path d="M24.5168 1.07502C24.811 1.28898 24.9313 1.57427 24.8779 1.93087L21.4544 22.4714C21.4099 22.73 21.2672 22.9305 21.0265 23.0732C20.9017 23.1445 20.7635 23.1802 20.6119 23.1802C20.5139 23.1802 20.4069 23.1579 20.291 23.1133L14.2332 20.6393L10.9969 24.5843C10.8365 24.7894 10.6181 24.8919 10.3417 24.8919C10.2258 24.8919 10.1277 24.8741 10.0475 24.8384C9.87809 24.776 9.74214 24.6712 9.63961 24.5241C9.53709 24.377 9.48582 24.2143 9.48582 24.036V19.3689L21.0399 5.2072L6.74441 17.577L1.46218 15.4106C1.13232 15.2858 0.954013 15.0406 0.927267 14.6751C0.909437 14.3185 1.05208 14.0555 1.3552 13.8861L23.6074 1.04827C23.7412 0.968036 23.8838 0.927917 24.0354 0.927917C24.2137 0.927917 24.3741 0.976951 24.5168 1.07502Z" fill="black"/>
</svg>
